<svg xmlns="http://www.w3.org/2000/svg" width="24" height="24" preserveAspectRatio="xMidYMid" version="1.0" viewBox="0 0 18 18"><path d="M7.878 1.196c-1.938.338-3.463 1.15-4.716 2.531-1.176 1.295-1.854 2.82-2.043 4.582-.26 2.438.594 4.79 2.365 6.53a7.961 7.961 0 0 0 11.168 0 7.976 7.976 0 0 0 .266-11.176c-1.14-1.23-2.575-2.035-4.24-2.388-.77-.158-2.107-.201-2.8-.079zm2.415.367A7.591 7.591 0 0 1 14.4 3.64c2.722 2.654 3.1 6.868.882 9.932-2.008 2.769-5.493 3.876-8.712 2.769-2.687-.928-4.612-3.237-5.06-6.07a6.772 6.772 0 0 1 0-2.316c.26-1.625.917-2.948 2.058-4.135 1.763-1.827 4.268-2.66 6.725-2.258z"/><path d="m8.186 3.76-.756.755-.51-.007c-.736-.015-.743-.015-.896.144-.12.122-.14.237-.14.74v.604l-.805.813-.805.82v2.69c0 2.74.014 2.876.273 3.085.084.065 1.155.086 4.465.093 2.393 0 4.401-.021 4.464-.043.294-.122.315-.316.315-3.15V7.6l-.805-.798-.804-.806V5.4c0-.511-.021-.626-.14-.748-.154-.159-.147-.159-.903-.151h-.525l-.742-.748c-.406-.417-.783-.755-.832-.755-.05 0-.434.345-.854.762zm1.896.69c0 .029-.469.05-1.05.043-.573 0-1.05-.028-1.05-.057 0-.036.246-.288.54-.561l.539-.51.51.51c.28.288.511.54.511.575zm1.736.432c.063.065.084.647.084 2.186v2.093l-.82.79-.825.792-.56-.381c-.308-.216-.608-.389-.664-.389-.056 0-.357.173-.665.382l-.56.388-.819-.798-.826-.799V7.061c0-1.532.021-2.114.084-2.18.12-.121 5.452-.121 5.57 0zM5.87 8.24l-.021.568-.595-.568-.595-.568.595-.582.595-.583.02.583c.015.323.015.841 0 1.15zm6.976-1.143.553.568-.14.158c-.07.086-.343.345-.602.583l-.475.431V7.68c0-.64.02-1.158.056-1.158.027 0 .3.26.608.576zm-6.34 2.826c.994.971 1.008.993.875 1.122-.07.072-.72.54-1.441 1.043L4.624 13V8.082l.44.424c.239.23.89.87 1.442 1.417zm7.005.626c0 1.345-.02 2.445-.049 2.445-.112-.007-2.855-1.992-2.855-2.064 0-.08 2.764-2.82 2.855-2.826.028 0 .05 1.1.05 2.445zm-2.498 1.122c1.05.74 1.952 1.388 2.008 1.438.084.086-.518.1-3.988.1-2.562 0-4.06-.028-4.017-.064.16-.165 3.919-2.805 4.003-2.805.049-.007.944.597 1.994 1.33z"/><path d="M8.298 5.69c-.756.36-1.232 1.425-1.022 2.288.12.489.378.834.798 1.071.336.194.42.209 1.064.209.79 0 1.063-.1 1.497-.568l.245-.26h-.224c-.126 0-.224.03-.224.073 0 .036-.147.158-.329.266-.294.18-.406.201-.93.201-.777 0-1.176-.187-1.456-.669-.154-.28-.189-.424-.182-.812.007-.964.65-1.647 1.56-1.647.931.007 1.547.705 1.337 1.51-.126.468-.707.978-.805.698-.02-.044.042-.425.133-.842s.154-.776.14-.805c-.042-.072-.259.021-.329.136-.049.08-.09.072-.238-.05-.587-.475-1.413.266-1.336 1.201.028.33.07.439.224.575a.659.659 0 0 0 .805.044c.16-.108.174-.108.265.014.126.18.511.165.826-.036.266-.173.553-.619.63-.992.119-.583-.259-1.31-.826-1.59-.399-.201-1.217-.208-1.623-.014zm.98 1.087c.321.367-.05 1.366-.511 1.366-.266 0-.434-.194-.434-.51 0-.748.574-1.273.944-.856z"/></svg>