<svg class="icon-phone" width="16" height="16" viewBox="0 0 16 16" fill="none" xmlns="http://www.w3.org/2000/svg">
  <g fill="rgb(45, 62, 80)">
  <path d="m0.4075 3.56c5e-3 -0.7 0.22375-1.295 0.755-1.7725 0.34375-0.31 0.65875-0.6525 0.9875-0.97874 0.51625-0.51125 1.1888-0.50875 1.7038 5e-3 0.6525 0.65124 1.305 1.3025 1.955 1.9562 0.535 0.53625 0.53375 1.1975-0.0025 1.7362-0.19875 0.2-0.3875 0.41-0.59875 0.59375-0.27125 0.235-0.31375 0.5225-0.25125 0.84875 0.10875 0.56875 0.37125 1.0712 0.68625 1.5438 0.8625 1.2925 1.95 2.3538 3.3062 3.125 0.35375 0.2012 0.7275 0.3612 1.1326 0.43 0.3087 0.0525 0.5837 0.0112 0.8087-0.2438 0.1988-0.2262 0.4225-0.4325 0.6388-0.6425 0.5087-0.4962 1.1762-0.49496 1.6812 0.0063 0.665 0.6612 1.3288 1.3237 1.9888 1.9887 0.505 0.5088 0.5025 1.18-0.0038 1.6925-0.355 0.3588-0.7225 0.7075-1.0687 1.075-0.4088 0.4338-0.9175 0.6125-1.495 0.6375-0.8125 0.035-1.5788-0.17-2.3263-0.4575-1.4225-0.5475-2.6925-1.3562-3.8762-2.3037-1.8425-1.475-3.4088-3.1975-4.62-5.2288-0.58625-0.98375-1.0687-2.0125-1.2887-3.1462-0.055-0.285-0.07625-0.57625-0.1125-0.865z"/>
  <path d="m8.1125 1.9888c2.3037 0.1875 4.0487 1.2575 5.1712 3.2912 0.4763 0.8625 0.6925 1.8012 0.7138 2.7838 0.0012 0.03125 0.0025 0.0625 0.0012 0.09375-0.01 0.1425-0.0987 0.23625-0.225 0.22625-0.1362-0.01-0.1962-0.09375-0.2087-0.2275-0.0375-0.3925-0.0488-0.79125-0.1263-1.1775-0.4825-2.3975-2.4875-4.2338-4.915-4.5175-0.20625-0.02375-0.415-0.03125-0.6225-0.04625-0.17375-0.0125-0.26875-0.0925-0.26625-0.22125 0.0025-0.13625 0.1075-0.21 0.29125-0.2075 0.06125 0.00375 0.12375 0.0025 0.18625 0.0025z"/>
  <path d="m12.166 7.9425c0 0.0975 0.0025 0.16 0 0.2225-0.0063 0.12875-0.0725 0.20625-0.2025 0.21125-0.13 0.00625-0.2075-0.0675-0.22-0.19375-0.02-0.19625-0.0238-0.395-0.0488-0.59125-0.2175-1.7125-1.67-3.1312-3.3937-3.3162-0.12875-0.01375-0.25875-0.0225-0.38875-0.02875-0.18125-0.0075-0.28375-0.08625-0.2825-0.22125 0.00125-0.13625 0.10625-0.21875 0.28625-0.21375 1.1712 0.03875 2.18 0.46375 3.0037 1.2988 0.7813 0.79375 1.1863 1.7575 1.2463 2.8325z"/>
  <path d="m7.9812 5.645c1.2862 0.0975 2.2688 1.0812 2.3588 2.3488 0.0038 0.05125 0.0062 0.10375 0.0038 0.15625-0.0075 0.1325-0.0738 0.22-0.2113 0.2225-0.1375 0.00375-0.20625-0.0825-0.22125-0.21375-0.0175-0.15-0.0175-0.3025-0.05-0.44875-0.20875-0.9375-0.9725-1.575-1.955-1.6412-0.03625-0.0025-0.07375 0-0.10875-0.0075-0.11125-0.0225-0.1725-0.09375-0.1725-0.2075 0-0.115 0.06-0.18875 0.1725-0.2075 0.065-0.01125 0.13375-0.00125 0.18375-0.00125z"/>
  </g>
</svg>