<?xml version="1.0" encoding="utf-8"?>
<svg width="60.19" height="16.377" viewBox="0 0 60.19 16.377" fill="none" xmlns="http://www.w3.org/2000/svg">
  <defs>
    <clipPath id="clip_path_1">
      <rect width="60.19" height="16.377" />
    </clipPath>
  </defs>
  <g clip-path="url(#clip_path_1)">
    <g transform="translate(0 -0)">
      <g>
        <path d="M11.7705 2.99536C11.7705 2.99536 11.7705 0 11.7705 0C11.7705 0 5.3522 0 5.3522 0C5.3522 0 0.246042 0.738828 0.00327383 5.13476C-0.153222 11.2276 5.3522 11.622 5.3522 11.622C5.3522 11.622 11.7705 11.622 11.7705 11.622C11.7705 11.622 11.7705 8.68574 11.7705 8.68574C11.7705 8.68574 5.48161 8.68574 5.48161 8.68574C5.48161 8.68574 2.89141 8.22822 2.92652 5.59627C3.13819 3.67212 5.3522 2.99536 5.3522 2.99536C5.3522 2.99536 11.7705 2.99536 11.7705 2.99536Z" fill="#4C638B" fill-rule="evenodd" />
        <path d="M0 0C0 0 2.95836 0 2.95836 0C2.95836 0 2.95836 6.11285 2.95836 6.11285C2.95836 6.11285 2.98244 6.92576 3.84015 7.70464C4.69486 8.48251 5.85453 8.62367 5.85453 8.62367C5.85453 8.62367 5.85453 11.619 5.85453 11.619C5.85453 11.619 3.43688 11.4669 1.76358 9.96917C0.0902863 8.4705 0.0712242 6.78961 0.0712242 6.78961C0.0712242 6.78961 0 0 0 0Z" fill="#4C638B" fill-rule="evenodd" transform="translate(13.409 0.062)" />
      </g>
      <path d="M0 0C0 0 2.89617 0 2.89617 0C2.89617 0 2.89617 11.619 2.89617 11.619L0 11.619C0 11.619 0 0 0 0Z" fill="#E02A75" fill-rule="evenodd" transform="translate(22.159 0.062)" />
      <path d="M0.689184 9.97707e-05C0.689184 9.97707e-05 6.29292 9.97707e-05 6.29292 9.97707e-05C6.29292 9.97707e-05 9.22419 -0.0579654 10.6979 2.62905C12.1163 4.79848 11.9598 8.68183 11.9598 8.68183C11.9598 8.68183 11.9598 11.6191 11.9598 11.6191C11.9598 11.6191 0 11.6191 0 11.6191C0 11.6191 0 8.68183 0 8.68183C0 8.68183 8.93828 8.68183 8.93828 8.68183C8.93828 8.68183 9.23623 6.06189 8.18189 4.2789C7.55892 3.17966 6.29291 2.99646 6.29291 2.99646C6.29291 2.99646 3.71074 2.99646 3.71074 2.99646C3.71074 2.99646 3.71074 6.72664 3.71074 6.72664L0.689177 6.72664C0.689177 6.72664 0.689184 9.97707e-05 0.689184 9.97707e-05Z" fill="#4C638B" fill-rule="evenodd" transform="translate(27.258 0.062)" />
      <g transform="translate(39.029 0.673)">
        <path d="M6.54471 9.54745e-07C6.54471 9.54745e-07 6.52866 0.488549 7.23791 0.793891C7.94715 1.10224 8.43269 1.10224 9.37768 1.22437C11.6388 1.8691 17.3599 3.43385 17.3599 3.43385C17.3599 3.43385 8.18189 3.3868 8.18189 3.3868C8.18189 3.3868 6.52063 3.40582 6.38018 5.16179C6.35209 7.53945 8.18189 7.34023 8.18189 7.34023C8.18189 7.34023 17.2305 7.34023 17.2305 7.34023C17.2305 7.34023 11.7562 8.72078 9.49505 9.3615C8.30428 9.49064 8.10766 9.38152 7.23791 9.90911C6.52866 10.3196 6.54471 10.8872 6.54471 10.8872C6.54471 10.8872 2.45376 10.8872 2.45376 10.8872C2.45376 10.8872 2.45376 4.83342 2.45376 4.83342C2.45376 4.83342 2.37853 3.40982 2.07757 2.69002C1.34425 1.0672 0 0 0 0C0 0 6.54471 9.54745e-07 6.54471 9.54745e-07Z" fill="#E02A75" fill-rule="evenodd" />
        <path d="M0.000971794 1.5434C0.0481219 0.0617366 1.38034 0.0226924 1.38034 0.0226924C1.38034 0.0226924 11.0951 -0.0283644 12.016 0.0226924C12.9399 0.0737493 13.8889 0.503231 13.8889 0.503231C13.8889 0.503231 14.4176 0.63638 14.4216 1.00079C14.4336 1.3642 13.9321 1.39123 13.9321 1.39123C13.9321 1.39123 2.32432 1.39123 2.32432 1.39123C2.32432 1.39123 2.01534 0.726481 1.592 0.679428C1.16465 0.632375 0.702185 0.937718 0.687138 1.61047C0.671088 2.28723 1.1807 2.58456 1.592 2.59157C1.99929 2.59558 2.32432 1.91882 2.32432 1.91882C2.32432 1.91882 13.8969 1.91882 13.8969 1.91882C13.8969 1.91882 14.3554 1.91882 14.3474 2.28323C14.3313 2.50948 14.1548 2.59157 14.1548 2.59157C14.1548 2.59157 13.3753 2.95998 12.016 3.01805C10.6597 3.07712 1.38033 3.32339 1.38033 3.32339C1.38033 3.32339 -0.0421753 3.02606 0.00096035 1.5434C0.00096035 1.5434 0.000971794 1.5434 0.000971794 1.5434Z" fill="#E02A75" fill-rule="evenodd" transform="translate(6.739 3.771)" />
      </g>
      <path d="M0.575739 1.1703C0.575739 0.949153 0.624262 0.749413 0.72126 0.571062C0.818258 0.392661 0.952332 0.252917 1.12338 0.151713C1.2944 0.0505934 1.48739 0 1.70227 0C1.91712 0 2.11008 0.0510731 2.28115 0.153286C2.45218 0.255548 2.58622 0.395806 2.68321 0.574174C2.78021 0.752509 2.82873 0.952266 2.82873 1.17343C2.82873 1.35281 2.79744 1.51655 2.73486 1.66464C2.67225 1.8128 2.58152 1.93796 2.46261 2.04014C2.46261 2.04014 2.2154 1.77729 2.2154 1.77729C2.38647 1.61875 2.47203 1.4237 2.47203 1.19214C2.47203 1.04198 2.43916 0.907417 2.37345 0.7885C2.3077 0.669617 2.21648 0.576739 2.09963 0.509989C1.98279 0.443272 1.85036 0.409878 1.70227 0.409878C1.55411 0.409878 1.42169 0.443272 1.30484 0.509989C1.18801 0.576739 1.09677 0.669617 1.03102 0.7885C0.965351 0.907417 0.932472 1.04198 0.932472 1.19214C0.932472 1.4237 1.01906 1.61875 1.19218 1.77729C1.19218 1.77729 0.941853 2.04014 0.941853 2.04014C0.822943 1.93796 0.73221 1.81223 0.669605 1.66307C0.607061 1.51391 0.575729 1.34968 0.575729 1.17028C0.575729 1.17028 0.575739 1.1703 0.575739 1.1703ZM2.29675 4.48408C2.29675 4.69471 2.23578 4.86165 2.11372 4.98467C1.99168 5.1078 1.80865 5.16934 1.56458 5.16934C1.56458 5.16934 0.607067 5.16934 0.607067 5.16934C0.607067 5.16934 0.607067 4.77818 0.607067 4.77818C0.607067 4.77818 1.51448 4.77818 1.51448 4.77818C1.66052 4.77818 1.7706 4.74588 1.84462 4.68119C1.91867 4.61647 1.95568 4.52369 1.95568 4.40267C1.95568 4.27123 1.91243 4.16589 1.82582 4.08663C1.73929 4.00736 1.61569 3.96773 1.45505 3.96773C1.45505 3.96773 0.607058 3.96773 0.607058 3.96773C0.607058 3.96773 0.607059 3.57657 0.607059 3.57657C0.607059 3.57657 1.51447 3.57657 1.51447 3.57657C1.66051 3.57657 1.77059 3.54428 1.84461 3.47957C1.91866 3.4149 1.95568 3.32207 1.95568 3.20111C1.95568 3.06756 1.9129 2.96173 1.82738 2.88347C1.74189 2.80525 1.61774 2.76611 1.45504 2.76611C1.45504 2.76611 0.60705 2.76611 0.60705 2.76611C0.60705 2.76611 0.60705 2.37501 0.60705 2.37501L2.27802 2.37501C2.27802 2.37501 2.27802 2.74742 2.27802 2.74742C2.27802 2.74742 2.06516 2.74742 2.06516 2.74742C2.14031 2.80995 2.19768 2.88819 2.23731 2.98204C2.27696 3.07598 2.29673 3.1802 2.29673 3.295C2.29673 3.42015 2.27332 3.53124 2.22635 3.62822C2.17939 3.72522 2.11006 3.80187 2.01828 3.85824C2.10589 3.92706 2.17418 4.0157 2.22323 4.12423C2.27224 4.23266 2.29673 4.35264 2.29673 4.48408C2.29673 4.48408 2.29675 4.48408 2.29675 4.48408ZM2.29675 6.47733C2.29675 6.65045 2.26131 6.80215 2.19038 6.93261C2.1195 7.06297 2.01929 7.16418 1.89 7.23611C1.76064 7.30807 1.61048 7.34406 1.43941 7.34406C1.27043 7.34406 1.12126 7.30962 0.991964 7.24081C0.86261 7.17199 0.762466 7.07553 0.691534 6.95139C0.620626 6.82724 0.585148 6.68384 0.585148 6.52111C0.585148 6.28954 0.659225 6.10808 0.807299 5.97664C0.807299 5.97664 0 5.97664 0 5.97664C0 5.97664 0 5.58235 0 5.58235C0 5.58235 1.43629 5.58235 1.43629 5.58235C1.60522 5.58235 1.75494 5.61992 1.8853 5.69499C2.01566 5.77012 2.11686 5.87495 2.18879 6.0095C2.26081 6.14401 2.29675 6.29998 2.29675 6.47731C2.29675 6.47731 2.29675 6.47733 2.29675 6.47733ZM0.916832 6.46169C0.916832 6.60769 0.965353 6.7266 1.06235 6.81841C1.15935 6.91018 1.28501 6.95603 1.43941 6.95603C1.59377 6.95603 1.72001 6.91018 1.81806 6.81841C1.91606 6.72662 1.96508 6.60769 1.96508 6.46169C1.96508 6.31353 1.91712 6.1946 1.82118 6.10495C1.72519 6.01521 1.59895 5.97038 1.44255 5.97038C1.28607 5.97038 1.15935 6.0158 1.06235 6.10651C0.965355 6.19725 0.916832 6.31564 0.916832 6.46169C0.916832 6.46169 0.916832 6.46169 0.916832 6.46169ZM0.585146 8.47992C0.585146 8.31099 0.62166 8.15868 0.694643 8.02305C0.767662 7.88749 0.869354 7.78162 0.999767 7.70549C1.13016 7.62931 1.27774 7.59127 1.44254 7.59127C1.60735 7.59127 1.75436 7.62933 1.88372 7.70549C2.0131 7.78162 2.11421 7.8875 2.18724 8.02305C2.26023 8.15868 2.29673 8.31099 2.29673 8.47992C2.29673 8.65099 2.26022 8.80432 2.18724 8.93988C2.11421 9.07551 2.0131 9.1814 1.88372 9.25754C1.75436 9.33367 1.60735 9.37175 1.44254 9.37175C1.27773 9.37175 1.13015 9.33367 0.999767 9.25754C0.869354 9.1814 0.767662 9.07551 0.694643 8.93988C0.621653 8.80432 0.585146 8.65099 0.585146 8.47992C0.585146 8.47992 0.585146 8.47992 0.585146 8.47992ZM0.919949 8.47992C0.919949 8.62387 0.967981 8.74278 1.0639 8.83664C1.15989 8.93052 1.28607 8.97748 1.44255 8.97748C1.59895 8.97748 1.72518 8.93052 1.82118 8.83664C1.91712 8.74278 1.96507 8.62387 1.96507 8.47992C1.96507 8.33601 1.91712 8.21761 1.82118 8.12475C1.72518 8.03196 1.59895 7.98556 1.44255 7.98556C1.28607 7.98556 1.15988 8.03196 1.0639 8.12475C0.967981 8.21761 0.919949 8.33601 0.919949 8.47992C0.919949 8.47992 0.919949 8.47992 0.919949 8.47992ZM2.27804 11.34C2.27804 11.34 0.607065 11.34 0.607065 11.34C0.607065 11.34 0.607065 10.9676 0.607065 10.9676C0.607065 10.9676 0.819828 10.9676 0.819828 10.9676C0.744749 10.905 0.686838 10.8273 0.646177 10.7345C0.605494 10.6417 0.585146 10.541 0.585146 10.4325C0.585146 10.2093 0.647179 10.033 0.771355 9.90366C0.895443 9.77436 1.07954 9.70967 1.32363 9.70967C1.32363 9.70967 2.27804 9.70967 2.27804 9.70967C2.27804 9.70967 2.27804 10.1008 2.27804 10.1008C2.27804 10.1008 1.37679 10.1008 1.37679 10.1008C1.22663 10.1008 1.1145 10.1347 1.04042 10.2025C0.9664 10.2703 0.929317 10.3678 0.929317 10.4951C0.929317 10.6328 0.972658 10.7428 1.05919 10.8252C1.1458 10.9076 1.2704 10.9488 1.43312 10.9488C1.43312 10.9488 2.27802 10.9488 2.27802 10.9488C2.27802 10.9488 2.27804 11.34 2.27804 11.34ZM2.47516 10.5201C2.47516 10.3512 2.51428 10.2223 2.59248 10.1336C2.67068 10.045 2.78491 9.99964 2.93512 9.99759C2.93512 9.99759 2.93512 10.2572 2.93512 10.2572C2.86006 10.2594 2.80057 10.2829 2.75673 10.3277C2.71297 10.3725 2.69106 10.4357 2.69106 10.517C2.69106 10.5962 2.71297 10.6594 2.75673 10.7063C2.80055 10.7532 2.86003 10.7778 2.93512 10.7798C2.93512 10.7798 2.93512 11.0458 2.93512 11.0458C2.78491 11.0437 2.67068 10.9978 2.59248 10.9081C2.51428 10.8184 2.47516 10.6891 2.47516 10.5201C2.47516 10.5201 2.47516 10.5201 2.47516 10.5201ZM2.27804 13.4521C2.27804 13.4521 0.607065 13.4521 0.607065 13.4521C0.607065 13.4521 0.607065 13.0797 0.607065 13.0797C0.607065 13.0797 0.819828 13.0797 0.819828 13.0797C0.744749 13.0172 0.686838 12.9395 0.646177 12.8466C0.605494 12.7538 0.585146 12.6531 0.585146 12.5447C0.585146 12.3215 0.647179 12.1452 0.771355 12.0158C0.895443 11.8865 1.07954 11.8218 1.32363 11.8218C1.32363 11.8218 2.27804 11.8218 2.27804 11.8218C2.27804 11.8218 2.27804 12.213 2.27804 12.213C2.27804 12.213 1.37679 12.213 1.37679 12.213C1.22663 12.213 1.1145 12.2469 1.04042 12.3147C0.9664 12.3825 0.929317 12.48 0.929317 12.6072C0.929317 12.7449 0.972658 12.855 1.05919 12.9374C1.1458 13.0197 1.2704 13.061 1.43312 13.061C1.43312 13.061 2.27802 13.061 2.27802 13.061C2.27802 13.061 2.27804 13.4521 2.27804 13.4521ZM2.27803 13.981C2.27803 13.981 2.27803 14.3721 2.27803 14.3721L1.59895 14.3721L1.59895 15.2138L2.27803 15.2138L2.27803 15.605L0.607067 15.605L0.607067 15.2138L1.26727 15.2138L1.26727 14.3721L0.607067 14.3721L0.607067 13.981C0.607067 13.981 2.27803 13.981 2.27803 13.981ZM1.47692 17.3416C1.41437 17.5482 1.28086 17.6514 1.07643 17.6514C0.926212 17.6514 0.81045 17.5951 0.729105 17.4824C0.647758 17.3698 0.607073 17.2029 0.607073 16.9818C0.607073 16.9818 0.607073 16.1307 0.607073 16.1307C0.607073 16.1307 2.27804 16.1307 2.27804 16.1307C2.27804 16.1307 2.27804 16.9474 2.27804 16.9474C2.27803 17.1518 2.24048 17.3114 2.16539 17.4261C2.09025 17.5408 1.98388 17.5982 1.84616 17.5982C1.76064 17.5982 1.68662 17.5758 1.62401 17.531C1.56143 17.4861 1.51242 17.423 1.47692 17.3416C1.47692 17.3416 1.47692 17.3416 1.47692 17.3416ZM1.58023 16.5031C1.58023 16.5031 1.58023 16.9129 1.58023 16.9129C1.58023 17.1153 1.6501 17.2164 1.78987 17.2164C1.92544 17.2164 1.99325 17.1153 1.99325 16.9129C1.99325 16.9129 1.99325 16.5031 1.99325 16.5031C1.99325 16.5031 1.58023 16.5031 1.58023 16.5031ZM0.891817 16.9505C0.891817 17.1653 0.961716 17.2728 1.10146 17.2728C1.17448 17.2728 1.22922 17.2477 1.26572 17.1977C1.3022 17.1476 1.32049 17.0694 1.32049 16.963C1.32049 16.963 1.32049 16.5031 1.32049 16.5031C1.32049 16.5031 0.891809 16.5031 0.891809 16.5031C0.891809 16.5031 0.891817 16.9505 0.891817 16.9505ZM0.916824 18.8561C0.916824 19.0375 0.97731 19.1889 1.09834 19.3098C1.09834 19.3098 0.857391 19.5163 0.857391 19.5163C0.76766 19.4433 0.699907 19.3494 0.654016 19.2347C0.608126 19.12 0.585146 18.9906 0.585146 18.8467C0.585146 18.6631 0.62166 18.5014 0.694643 18.3617C0.76766 18.2219 0.869352 18.114 0.999767 18.0378C1.13016 17.9617 1.27774 17.9236 1.44254 17.9236C1.60521 17.9236 1.75179 17.9606 1.88217 18.0347C2.01253 18.1088 2.11421 18.211 2.18724 18.3413C2.26023 18.4718 2.29673 18.6194 2.29673 18.7842C2.29673 18.9406 2.26286 19.083 2.19503 19.2113C2.12729 19.3396 2.03023 19.4413 1.90408 19.5163C1.77785 19.5914 1.63026 19.629 1.46131 19.629C1.46131 19.629 1.21097 18.3492 1.21097 18.3492C1.11498 18.3888 1.04196 18.4524 0.991945 18.54C0.941849 18.6277 0.916807 18.733 0.916807 18.8561C0.916807 18.8561 0.916824 18.8561 0.916824 18.8561ZM1.98387 18.7841C1.98387 18.6402 1.93694 18.5239 1.84304 18.4352C1.74916 18.3466 1.62301 18.3023 1.46447 18.3023C1.46447 18.3023 1.46132 18.3023 1.46132 18.3023C1.46132 18.3023 1.64279 19.2472 1.64279 19.2472C1.74505 19.2201 1.8274 19.1654 1.89 19.0829C1.95255 19.0005 1.98388 18.9009 1.98388 18.7841C1.98388 18.7841 1.98387 18.7841 1.98387 18.7841ZM0.58515 20.7711C0.58515 20.5979 0.621664 20.4425 0.694647 20.3049C0.767664 20.1672 0.869356 20.0597 0.999771 19.9826C1.13016 19.9054 1.27774 19.8668 1.44255 19.8668C1.60736 19.8668 1.75436 19.9054 1.88372 19.9826C2.0131 20.0598 2.11423 20.1667 2.18724 20.3033C2.26023 20.4399 2.29673 20.5959 2.29673 20.7711C2.29673 20.9358 2.26337 21.0803 2.19662 21.2044C2.12988 21.3287 2.03393 21.4221 1.90878 21.4845C1.90878 21.4845 1.7335 21.1842 1.7335 21.1842C1.81072 21.136 1.86857 21.0762 1.9072 21.0042C1.94578 20.9322 1.96506 20.8535 1.96506 20.768C1.96506 20.622 1.91759 20.5009 1.82274 20.4049C1.7278 20.3091 1.60108 20.261 1.44254 20.261C1.28399 20.261 1.15725 20.3085 1.06233 20.4035C0.967396 20.4983 0.919931 20.6199 0.919931 20.768C0.919931 20.8535 0.93922 20.9322 0.977842 21.0042C1.01644 21.0762 1.07435 21.136 1.15149 21.1842C1.15149 21.1842 0.976295 21.4845 0.976295 21.4845C0.85112 21.4198 0.754635 21.3254 0.686825 21.2013C0.619072 21.0772 0.585133 20.9338 0.585133 20.7711C0.585133 20.7711 0.58515 20.7711 0.58515 20.7711ZM2.29675 23.9377C2.29675 24.1485 2.23578 24.3153 2.11372 24.4383C1.99168 24.5614 1.80865 24.6231 1.56458 24.6231C1.56458 24.6231 0.607065 24.6231 0.607065 24.6231C0.607065 24.6231 0.607065 24.2319 0.607065 24.2319C0.607065 24.2319 1.51448 24.2319 1.51448 24.2319C1.66052 24.2319 1.7706 24.1995 1.84461 24.1348C1.91866 24.0701 1.95568 23.9774 1.95568 23.8563C1.95568 23.7249 1.91242 23.6195 1.82581 23.5404C1.73929 23.4611 1.61568 23.4214 1.45505 23.4214C1.45505 23.4214 0.607056 23.4214 0.607056 23.4214C0.607056 23.4214 0.607056 23.0302 0.607056 23.0302C0.607056 23.0302 1.51447 23.0302 1.51447 23.0302C1.66051 23.0302 1.77058 22.998 1.8446 22.9334C1.91866 22.8687 1.95568 22.7757 1.95568 22.6549C1.95568 22.5212 1.9129 22.4154 1.82738 22.3371C1.74189 22.259 1.61774 22.2199 1.45504 22.2199C1.45504 22.2199 0.607048 22.2199 0.607048 22.2199C0.607048 22.2199 0.607048 21.8287 0.607048 21.8287L2.27802 21.8287C2.27802 21.8287 2.27802 22.201 2.27802 22.201C2.27802 22.201 2.06516 22.201 2.06516 22.201C2.14031 22.2637 2.19768 22.3418 2.23731 22.4358C2.27696 22.5297 2.29673 22.6339 2.29673 22.7486C2.29673 22.8737 2.27332 22.9848 2.22634 23.0819C2.17939 23.1789 2.11006 23.2556 2.01828 23.3119C2.10589 23.3807 2.17418 23.4694 2.22323 23.5778C2.27224 23.6863 2.29673 23.8063 2.29673 23.9377C2.29673 23.9377 2.29675 23.9377 2.29675 23.9377ZM0.951244 28.2686C0.951244 28.2686 0.140825 28.2686 0.140825 28.2686L0.140825 27.893L0.607065 27.893L0.607067 26.1657L0.140825 26.1626L0.140825 25.7871L0.951244 25.7902C0.951244 25.7902 0.951244 26.0562 0.951244 26.0562C0.951244 26.0562 1.84931 26.0562 1.84931 26.0562C2.05792 26.0562 2.23527 26.0963 2.38128 26.1767C2.5273 26.257 2.63839 26.3701 2.71452 26.5162C2.79066 26.6623 2.82875 26.8321 2.82875 27.0262C2.82875 27.2223 2.79119 27.3934 2.71611 27.5395C2.64096 27.6853 2.52988 27.7986 2.38284 27.8788C2.23578 27.9592 2.05792 27.9994 1.84931 27.9994C1.84931 27.9994 0.951244 27.9994 0.951244 27.9994C0.951244 27.9994 0.951244 28.2686 0.951244 28.2686ZM0.951244 27.5926C0.951244 27.5926 1.88688 27.5926 1.88688 27.5926C2.07877 27.5926 2.22431 27.5425 2.32336 27.4424C2.42247 27.3423 2.47203 27.2036 2.47203 27.0262C2.47203 26.8488 2.42247 26.7107 2.32336 26.6116C2.22431 26.5125 2.07877 26.4629 1.88688 26.4629C1.88688 26.4629 0.951244 26.4629 0.951244 26.4629C0.951244 26.4629 0.951244 27.5926 0.951244 27.5926ZM0.916824 29.3856C0.916824 29.5671 0.97731 29.7182 1.09834 29.8393C1.09834 29.8393 0.857389 30.0458 0.857389 30.0458C0.76766 29.9727 0.699907 29.8789 0.654016 29.7642C0.608124 29.6495 0.585144 29.5201 0.585144 29.3763C0.585144 29.1926 0.621658 29.0308 0.694641 28.8911C0.76766 28.7513 0.869352 28.6435 0.999767 28.5672C1.13016 28.4911 1.27774 28.4531 1.44254 28.4531C1.60521 28.4531 1.75179 28.4901 1.88217 28.5642C2.01252 28.6382 2.11421 28.7405 2.18724 28.8707C2.26023 29.0011 2.29673 29.1488 2.29673 29.3136C2.29673 29.47 2.26286 29.6124 2.19503 29.7408C2.12729 29.869 2.03023 29.9707 1.90408 30.0458C1.77784 30.1208 1.63026 30.1585 1.46131 30.1585C1.46131 30.1585 1.21097 28.8787 1.21097 28.8787C1.11497 28.9183 1.04196 28.9818 0.991943 29.0695C0.941847 29.1572 0.916805 29.2625 0.916805 29.3856C0.916805 29.3856 0.916824 29.3856 0.916824 29.3856ZM1.98387 29.3136C1.98387 29.1696 1.93694 29.0532 1.84304 28.9647C1.74916 28.876 1.62301 28.8317 1.46447 28.8317C1.46447 28.8317 1.46132 28.8317 1.46132 28.8317C1.46132 28.8317 1.64279 29.7766 1.64279 29.7766C1.74505 29.7496 1.8274 29.6948 1.89 29.6124C1.95255 29.5301 1.98388 29.4304 1.98388 29.3136C1.98388 29.3136 1.98387 29.3136 1.98387 29.3136ZM1.47692 31.7511C1.41437 31.9576 1.28086 32.061 1.07643 32.061C0.92621 32.061 0.810448 32.0046 0.729103 31.8919C0.647757 31.7792 0.607073 31.6124 0.607073 31.3913C0.607073 31.3913 0.607073 30.5403 0.607073 30.5403C0.607073 30.5403 2.27803 30.5403 2.27803 30.5403C2.27803 30.5403 2.27803 31.3569 2.27803 31.3569C2.27803 31.5613 2.24048 31.7208 2.16539 31.8358C2.09024 31.9503 1.98388 32.0077 1.84616 32.0077C1.76064 32.0077 1.68661 31.9853 1.62401 31.9405C1.56143 31.8956 1.51242 31.8325 1.47692 31.7511C1.47692 31.7511 1.47692 31.7511 1.47692 31.7511ZM1.58023 30.9126C1.58023 30.9126 1.58023 31.3225 1.58023 31.3225C1.58023 31.5249 1.6501 31.626 1.78987 31.626C1.92543 31.626 1.99325 31.5249 1.99325 31.3225C1.99325 31.3225 1.99325 30.9126 1.99325 30.9126C1.99325 30.9126 1.58023 30.9126 1.58023 30.9126ZM0.891817 31.3601C0.891817 31.575 0.961714 31.6824 1.10146 31.6824C1.17448 31.6824 1.22922 31.6574 1.26572 31.6073C1.3022 31.5573 1.32048 31.4789 1.32048 31.3725C1.32048 31.3725 1.32048 30.9126 1.32048 30.9126C1.32048 30.9126 0.891808 30.9126 0.891808 30.9126C0.891808 30.9126 0.891817 31.3601 0.891817 31.3601ZM0.916824 33.2657C0.916824 33.4472 0.977308 33.5983 1.09834 33.7193C1.09834 33.7193 0.857389 33.9258 0.857389 33.9258C0.767658 33.8528 0.699905 33.759 0.654016 33.6443C0.608124 33.5295 0.585144 33.4002 0.585144 33.2563C0.585144 33.0726 0.621658 32.9109 0.694641 32.7711C0.76766 32.6314 0.86935 32.5236 0.999765 32.4473C1.13016 32.3712 1.27774 32.3332 1.44254 32.3332C1.60521 32.3332 1.75179 32.3702 1.88217 32.4442C2.01252 32.5183 2.11421 32.6206 2.18724 32.7508C2.26023 32.8812 2.29673 33.0289 2.29673 33.1937C2.29673 33.3501 2.26286 33.4925 2.19503 33.6209C2.12729 33.749 2.03023 33.8508 1.90408 33.9258C1.77784 34.0011 1.63026 34.0385 1.4613 34.0385C1.4613 34.0385 1.21097 32.7587 1.21097 32.7587C1.11497 32.7984 1.04196 32.8619 0.991943 32.9496C0.941845 33.0372 0.916805 33.1426 0.916805 33.2657C0.916805 33.2657 0.916824 33.2657 0.916824 33.2657ZM1.98387 33.1937C1.98387 33.0496 1.93694 32.9333 1.84304 32.8448C1.74916 32.7561 1.62301 32.7117 1.46447 32.7117C1.46447 32.7117 1.46132 32.7117 1.46132 32.7117C1.46132 32.7117 1.64279 33.6567 1.64279 33.6567C1.74505 33.6296 1.8274 33.5749 1.89 33.4925C1.95255 33.4101 1.98388 33.3104 1.98388 33.1937C1.98388 33.1937 1.98387 33.1937 1.98387 33.1937ZM2.27803 35.9128C2.27803 35.9128 0.607067 35.9128 0.607067 35.9128L0.607067 35.5218L1.94631 35.5218C1.94631 35.5218 1.94631 34.8958 1.94631 34.8958C1.94631 34.8958 1.61463 34.8803 1.61463 34.8803C1.39351 34.8698 1.20836 34.8494 1.0592 34.8193C0.910048 34.789 0.792215 34.7379 0.705614 34.6659C0.619085 34.5939 0.575745 34.4952 0.575745 34.3701C0.575745 34.3117 0.587275 34.2397 0.610197 34.1543C0.610197 34.1543 0.938755 34.173 0.938755 34.173C0.932487 34.2023 0.929344 34.2273 0.929344 34.2481C0.929344 34.3274 0.961163 34.3868 1.02479 34.4265C1.08846 34.4661 1.16459 34.4918 1.25321 34.5032C1.34188 34.5146 1.4686 34.5245 1.63341 34.5329C1.63341 34.5329 2.27805 34.561 2.27805 34.561C2.27805 34.561 2.27803 35.9128 2.27803 35.9128ZM0.585144 37.1832C0.585144 37.0143 0.621658 36.862 0.694641 36.7263C0.767658 36.5908 0.86935 36.4848 0.999765 36.4087C1.13016 36.3326 1.27774 36.2946 1.44254 36.2946C1.60735 36.2946 1.75436 36.3326 1.88372 36.4087C2.0131 36.4848 2.11421 36.5908 2.18724 36.7263C2.26023 36.862 2.29673 37.0143 2.29673 37.1832C2.29673 37.3543 2.26021 37.5077 2.18724 37.6432C2.11421 37.7788 2.0131 37.8846 1.88372 37.9609C1.75436 38.037 1.60735 38.075 1.44254 38.075C1.27773 38.075 1.13015 38.037 0.999765 37.9609C0.86935 37.8846 0.767658 37.7788 0.694641 37.6432C0.621649 37.5077 0.585144 37.3543 0.585144 37.1832C0.585144 37.1832 0.585144 37.1832 0.585144 37.1832ZM0.919945 37.1832C0.919945 37.3272 0.967979 37.446 1.06389 37.54C1.15989 37.6338 1.28607 37.6808 1.44255 37.6808C1.59895 37.6808 1.72518 37.6338 1.82118 37.54C1.91711 37.446 1.96507 37.3272 1.96507 37.1832C1.96507 37.0394 1.91711 36.921 1.82118 36.828C1.72518 36.7352 1.59895 36.6889 1.44255 36.6889C1.28607 36.6889 1.15988 36.7352 1.06389 36.828C0.967979 36.921 0.919945 37.0394 0.919945 37.1832C0.919945 37.1832 0.919945 37.1832 0.919945 37.1832ZM2.27803 40.062C2.27803 40.062 0.607065 40.062 0.607065 40.062L0.607065 39.674L1.9463 39.674L1.9463 38.8511L0.607065 38.8511L0.607065 38.4599L2.27803 38.4599C2.27803 38.4599 2.27803 40.062 2.27803 40.062ZM0.607065 42.2336C0.607065 42.2336 1.71474 42.2336 1.71474 42.2336L0.782263 41.6703L0.782263 41.5014L1.71786 40.9477L0.607065 40.9477L0.607065 40.5909L2.27803 40.5909L2.27803 41.0008L1.23291 41.5952L2.27803 42.2179L2.27803 42.5841L0.607065 42.5872C0.607065 42.5872 0.607065 42.2336 0.607065 42.2336ZM0.916824 43.9015C0.916824 44.083 0.977306 44.2342 1.09834 44.3552C1.09834 44.3552 0.857388 44.5617 0.857388 44.5617C0.767658 44.4887 0.699905 44.3949 0.654015 44.2801C0.608122 44.1654 0.585142 44.036 0.585142 43.8922C0.585142 43.7085 0.621656 43.5468 0.694641 43.407C0.767658 43.2672 0.86935 43.1594 0.999763 43.0831C1.13015 43.0071 1.27774 42.969 1.44254 42.969C1.6052 42.969 1.75179 43.006 1.88217 43.0801C2.01252 43.1541 2.11421 43.2563 2.18724 43.3867C2.26023 43.5171 2.29673 43.6648 2.29673 43.8295C2.29673 43.986 2.26286 44.1284 2.19503 44.2567C2.12729 44.3849 2.03023 44.4866 1.90408 44.5617C1.77784 44.6367 1.63026 44.6744 1.4613 44.6744C1.4613 44.6744 1.21097 43.3946 1.21097 43.3946C1.11497 43.4343 1.04196 43.4977 0.991943 43.5854C0.941845 43.6731 0.916805 43.7785 0.916805 43.9015C0.916805 43.9015 0.916824 43.9015 0.916824 43.9015ZM1.98387 43.8295C1.98387 43.6855 1.93694 43.5691 1.84304 43.4806C1.74916 43.3919 1.62301 43.3476 1.46447 43.3476C1.46447 43.3476 1.46132 43.3476 1.46132 43.3476C1.46132 43.3476 1.64279 44.2925 1.64279 44.2925C1.74505 44.2655 1.8274 44.2108 1.89 44.1284C1.95255 44.046 1.98388 43.9463 1.98388 43.8295C1.98388 43.8295 1.98387 43.8295 1.98387 43.8295ZM2.27803 45.056C2.27803 45.056 2.27803 45.4472 2.27803 45.4472L1.59895 45.4472L1.59895 46.289L2.27803 46.289L2.27803 46.68L0.607063 46.68L0.607063 46.289L1.26727 46.289L1.26727 45.4472L0.607063 45.4472L0.607063 45.0562C0.607063 45.0562 2.27803 45.056 2.27803 45.056ZM2.29675 49.3149C2.29675 49.5254 2.23578 49.6925 2.11372 49.8155C1.99168 49.9386 1.80864 50 1.56458 50C1.56458 50 0.607061 50 0.607061 50C0.607061 50 0.607061 49.6088 0.607061 49.6088C0.607061 49.6088 1.51448 49.6088 1.51448 49.6088C1.66051 49.6088 1.77059 49.5767 1.84461 49.512C1.91866 49.4473 1.95568 49.3544 1.95568 49.2335C1.95568 49.1019 1.91242 48.9967 1.82581 48.9174C1.73928 48.838 1.61568 48.7986 1.45505 48.7986C1.45505 48.7986 0.607054 48.7986 0.607054 48.7986C0.607054 48.7986 0.607054 48.4074 0.607054 48.4074C0.607054 48.4074 1.51447 48.4074 1.51447 48.4074C1.66051 48.4074 1.77058 48.375 1.8446 48.3103C1.91866 48.2456 1.95567 48.1529 1.95567 48.0318C1.95567 47.8984 1.91289 47.7924 1.82738 47.7143C1.74188 47.636 1.61773 47.5969 1.45504 47.5969C1.45504 47.5969 0.607046 47.5969 0.607046 47.5969C0.607046 47.5969 0.607046 47.2057 0.607046 47.2057L2.27801 47.2057C2.27801 47.2057 2.27801 47.5782 2.27801 47.5782C2.27801 47.5782 2.06516 47.5782 2.06516 47.5782C2.14031 47.6406 2.19768 47.719 2.2373 47.8127C2.27695 47.9067 2.29673 48.0109 2.29673 48.1258C2.29673 48.2509 2.27331 48.362 2.22634 48.459C2.17939 48.5559 2.11006 48.6326 2.01828 48.6889C2.10589 48.7577 2.17418 48.8464 2.22323 48.955C2.27223 49.0634 2.29673 49.1835 2.29673 49.3149C2.29673 49.3149 2.29675 49.3149 2.29675 49.3149Z" fill="#4C638B" fill-rule="evenodd" transform="matrix(0 -1 1 0 3.218 16.898)" />
    </g>
  </g>
</svg>